# 3ds Max Wavefront OBJ Exporter v0.97b - (c)2007 guruware
# 创建的文件:21.06.2021 11:02:31

mtllib pyramid.mtl

#
# object Cone001
#

v  -0.0121 0.0000 -0.2277
v  -1.1095 0.0000 -2.1285
v  1.0853 0.0000 -2.1285
v  2.1827 0.0000 -0.2277
v  -1.1095 0.0000 1.6731
v  -2.2069 0.0000 -0.2277
v  1.0853 0.0000 1.6731
v  0.9877 0.5243 -1.9595
v  1.9876 0.5243 -0.2277
v  -1.0120 0.5243 -1.9595
v  -2.0118 0.5243 -0.2277
v  -1.0120 0.5243 1.5041
v  0.9877 0.5243 1.5041
v  0.8902 1.0486 -1.7905
v  1.7925 1.0486 -0.2277
v  -0.9144 1.0486 -1.7905
v  -1.8167 1.0486 -0.2277
v  -0.9144 1.0486 1.3351
v  0.8902 1.0486 1.3351
v  0.7926 1.5729 -1.6216
v  1.5974 1.5729 -0.2277
v  -0.8169 1.5729 -1.6216
v  -1.6216 1.5729 -0.2277
v  -0.8169 1.5729 1.1662
v  0.7926 1.5729 1.1662
v  0.6951 2.0973 -1.4526
v  1.4023 2.0973 -0.2277
v  -0.7193 2.0973 -1.4526
v  -1.4265 2.0973 -0.2277
v  -0.7193 2.0973 0.9972
v  0.6951 2.0973 0.9972
v  0.5976 2.6216 -1.2837
v  1.2072 2.6216 -0.2277
v  -0.6218 2.6216 -1.2837
v  -1.2314 2.6216 -0.2277
v  -0.6218 2.6216 0.8283
v  0.5976 2.6216 0.8283
v  -0.0121 2.6216 -0.2277
# 38 vertices

vn 0.0000 -1.0000 -0.0000
vn 0.8243 0.3067 -0.4759
vn -0.0000 0.3067 -0.9518
vn -0.8243 0.3067 -0.4759
vn -0.8243 0.3067 0.4759
vn 0.0000 0.3067 0.9518
vn 0.8243 0.3067 0.4759
vn 0.0000 0.3067 -0.9518
vn 0.0000 1.0000 -0.0000
# 9 vertex normals

vt 0.5000 0.0000 0.0000
vt 0.6667 0.0000 -0.0000
vt 0.9167 0.0000 1.0000
vt 0.7500 0.0000 1.0000
vt 0.4167 0.0000 1.0000
vt 0.2500 0.0000 1.0000
vt 0.0833 0.0000 1.0000
vt 0.5833 0.0000 1.0000
vt 0.9167 0.2000 0.9111
vt 0.7500 0.2000 0.9111
vt -0.0833 0.0000 1.0000
vt 0.0833 0.2000 0.9111
vt -0.0833 0.2000 0.9111
vt 0.2500 0.2000 0.9111
vt 0.4167 0.2000 0.9111
vt 0.5833 0.2000 0.9111
vt 0.9167 0.4000 0.8222
vt 0.7500 0.4000 0.8222
vt 0.0833 0.4000 0.8222
vt -0.0833 0.4000 0.8222
vt 0.2500 0.4000 0.8222
vt 0.4167 0.4000 0.8222
vt 0.5833 0.4000 0.8222
vt 0.9167 0.6000 0.7333
vt 0.7500 0.6000 0.7333
vt 0.0833 0.6000 0.7333
vt -0.0833 0.6000 0.7333
vt 0.2500 0.6000 0.7333
vt 0.4167 0.6000 0.7333
vt 0.5833 0.6000 0.7333
vt 0.9167 0.8000 0.6444
vt 0.7500 0.8000 0.6444
vt 0.0833 0.8000 0.6444
vt -0.0833 0.8000 0.6444
vt 0.2500 0.8000 0.6444
vt 0.4167 0.8000 0.6444
vt 0.5833 0.8000 0.6444
vt 0.9167 1.0000 0.5556
vt 0.7500 1.0000 0.5556
vt 0.0833 1.0000 0.5556
vt -0.0833 1.0000 0.5556
vt 0.2500 1.0000 0.5556
vt 0.4167 1.0000 0.5556
vt 0.5833 1.0000 0.5556
vt 0.5000 1.0000 0.0000
# 45 texture coords

o Cone001
g Cone001
usemtl wire_229166215
s 1
f 1/1/1 2/2/1 3/3/1 4/4/1 
f 1/1/1 5/5/1 6/6/1 2/7/1 
f 1/1/1 4/4/1 7/8/1 5/5/1 
s off
f 4/4/2 3/3/2 8/9/2 9/10/2 
f 3/11/3 2/7/3 10/12/3 8/13/3 
f 2/7/4 6/6/4 11/14/4 10/12/4 
f 6/6/5 5/5/5 12/15/5 11/14/5 
f 5/5/6 7/8/6 13/16/6 12/15/6 
f 7/8/7 4/4/7 9/10/7 13/16/7 
f 9/10/2 8/9/2 14/17/2 15/18/2 
f 8/13/3 10/12/3 16/19/3 14/20/3 
f 10/12/4 11/14/4 17/21/4 16/19/4 
f 11/14/5 12/15/5 18/22/5 17/21/5 
f 12/15/6 13/16/6 19/23/6 18/22/6 
f 13/16/7 9/10/7 15/18/7 19/23/7 
f 15/18/2 14/17/2 20/24/2 21/25/2 
f 14/20/3 16/19/3 22/26/3 20/27/3 
f 16/19/4 17/21/4 23/28/4 22/26/4 
f 17/21/5 18/22/5 24/29/5 23/28/5 
f 18/22/6 19/23/6 25/30/6 24/29/6 
f 19/23/7 15/18/7 21/25/7 25/30/7 
f 21/25/2 20/24/2 26/31/2 27/32/2 
f 20/27/8 22/26/3 28/33/8 26/34/8 
f 22/26/4 23/28/4 29/35/4 28/33/4 
f 23/28/5 24/29/5 30/36/5 29/35/5 
f 24/29/6 25/30/6 31/37/6 30/36/6 
f 25/30/7 21/25/7 27/32/7 31/37/7 
f 27/32/2 26/31/2 32/38/2 33/39/2 
f 26/34/3 28/33/8 34/40/3 32/41/3 
f 28/33/4 29/35/4 35/42/4 34/40/4 
f 29/35/5 30/36/5 36/43/5 35/42/5 
f 30/36/6 31/37/6 37/44/6 36/43/6 
f 31/37/7 27/32/7 33/39/7 37/44/7 
s 1
f 38/45/9 37/44/9 33/39/9 32/38/9 
f 38/45/9 32/41/9 34/40/9 35/42/9 
f 38/45/9 35/42/9 36/43/9 37/44/9 
# 36 polygons

